<svg xmlns="http://www.w3.org/2000/svg" width="113.064" height="154.154" viewBox="0 0 113.064 154.154">
  <defs>
    <style>
      .cls-1 {
        fill: #393939;
      }
    </style>
  </defs>
  <g id="_9juYdI" data-name="9juYdI" transform="translate(-1858.988 -1180.38)">
    <g id="Group_47" data-name="Group 47" transform="translate(1858.988 1180.38)">
      <path id="Path_43" data-name="Path 43" class="cls-1" d="M1915.453,1419.652c-18.164,0-36.328-.023-54.491.04-1.6,0-1.905-.458-1.955-1.979-.206-6.422,1.2-12.264,5.5-17.231,4.736-5.471,10.8-7.9,17.927-7.916,5.214-.012,10.429-.048,15.642.029,1.315.02,1.644-.38,1.6-1.644q-.138-4.294,0-8.594a1.875,1.875,0,0,0-1.428-2.105c-15.4-6.41-25.13-17.709-29.063-33.944a41.526,41.526,0,0,1-1.117-9.539c-.04-6.532.019-13.066-.042-19.6-.012-1.266.305-1.733,1.621-1.654a43.065,43.065,0,0,0,5.5,0c1.485-.1,1.965.319,1.941,1.878-.093,6.188-.177,12.381-.012,18.565.432,16.063,7.791,27.966,22.262,34.94,21.936,10.571,48.351-2.6,53.57-26.411a40.593,40.593,0,0,0,.935-8.694c0-6.189.042-12.379-.031-18.567-.016-1.387.426-1.776,1.756-1.708,2,.1,4.01.047,6.015.018.806-.012,1.283.135,1.266,1.114-.133,7.79.514,15.614-.271,23.366-1.93,19.063-11.981,32.352-29.458,40.028-1.444.634-2,1.25-1.914,2.824.144,2.686.1,5.386.011,8.077-.043,1.254.272,1.67,1.6,1.65,5.156-.079,10.313-.046,15.471-.028a23.217,23.217,0,0,1,11.572,2.69c7.829,4.4,11.762,11.118,11.965,20.043.031,1.4.654,3.273-.308,4.094-.812.691-2.615.253-3.979.253Q1941.5,1419.659,1915.453,1419.652Zm0-8.994q22.428,0,44.856,0c1.8,0,1.958-.209,1.037-1.784a13.747,13.747,0,0,0-12.564-7.3q-33.341-.015-66.683,0a13.729,13.729,0,0,0-12.473,7.164c-1.033,1.73-.885,1.923,1.142,1.923Q1893.115,1410.66,1915.457,1410.658Zm-.035-18.1c1.885,0,3.771-.029,5.655.013.873.02,1.216-.275,1.2-1.18q-.069-3.512,0-7.026c.015-.86-.2-1.252-1.15-1.162a59.319,59.319,0,0,1-11.287,0c-.872-.083-1.231.163-1.211,1.1.051,2.341.059,4.685,0,7.026-.027,1.021.4,1.265,1.316,1.241C1911.765,1392.528,1913.594,1392.561,1915.422,1392.56Z" transform="translate(-1858.988 -1265.629)"/>
      <path id="Path_44" data-name="Path 44" class="cls-1" d="M1932.552,1230.224c0-6.818-.014-13.636,0-20.453a29.311,29.311,0,0,1,58.446-3.276,31.8,31.8,0,0,1,.125,3.6q.012,20.2,0,40.391c-.012,15.263-10.473,27.317-25.592,29.511-16.6,2.409-32.576-11-32.941-27.778-.16-7.33-.027-14.666-.027-22Zm8.989-.011q0,10.139,0,20.278a23.042,23.042,0,0,0,.379,4.441,20.306,20.306,0,0,0,40.2-3.5q.13-21.137-.005-42.275a18.851,18.851,0,0,0-7.605-15.316c-6.457-4.994-13.692-6.006-21.154-2.52-7.786,3.638-11.681,10.022-11.792,18.609C1941.473,1216.693,1941.542,1223.453,1941.541,1230.213Z" transform="translate(-1905.379 -1180.381)"/>
    </g>
  </g>
</svg>
