<svg id="close-envelope" xmlns="http://www.w3.org/2000/svg" width="36.458" height="26.041" viewBox="0 0 36.458 26.041">
  <defs>
    <style>
      .cls-1 {
        fill: #919196;
      }
    </style>
  </defs>
  <g id="Group_18" data-name="Group 18" transform="translate(0 0)">
    <path id="Path_18" data-name="Path 18" class="cls-1" d="M17.722,11.432l-4.51-3.948L.316,18.538a2.64,2.64,0,0,0,1.8.706H33.328a2.62,2.62,0,0,0,1.792-.706L22.232,7.484Z" transform="translate(0.507 6.797)"/>
    <path id="Path_19" data-name="Path 19" class="cls-1" d="M35.125,2.706A2.623,2.623,0,0,0,33.325,2H2.112a2.612,2.612,0,0,0-1.794.711l17.4,14.914Z" transform="translate(0.51 -2)"/>
    <path id="Path_20" data-name="Path 20" class="cls-1" d="M0,2.878V24.513l12.586-10.7Z" transform="translate(0 -0.592)"/>
    <path id="Path_21" data-name="Path 21" class="cls-1" d="M9.167,13.823l12.586,10.7V2.875Z" transform="translate(14.705 -0.596)"/>
  </g>
</svg>
