<svg id="Group_55" data-name="Group 55" xmlns="http://www.w3.org/2000/svg" width="207.135" height="205.547" viewBox="0 0 207.135 205.547">
  <defs>
    <style>
      .cls-1 {
        fill: #393939;
      }
    </style>
  </defs>
  <path id="Path_98" data-name="Path 98" class="cls-1" d="M2861.4,740.49c-6.954-3.872-13.4-7.462-19.851-11.054-4.911-2.736-9.833-5.449-14.714-8.233a2.75,2.75,0,0,0-3.149-.067q-7.178,4.192-14.491,8.157a2.815,2.815,0,0,0-1.671,2.874,39.318,39.318,0,0,1-35.539,38.9c-22.417,2.229-42.537-15.711-42.822-38.294a3.8,3.8,0,0,0-2.37-3.87c-4.7-2.475-9.3-5.144-13.9-7.8a2.4,2.4,0,0,0-2.733-.069q-16.822,9.435-33.693,18.776a9.523,9.523,0,0,0-.946.733c3.751,1.087,7.285,2.111,10.818,3.138.59.172,1.19.322,1.765.539a2.824,2.824,0,0,1,1.991,3.646,2.766,2.766,0,0,1-3.595,2.061c-2.695-.635-5.347-1.445-8.012-2.2-3.258-.921-6.529-1.806-9.762-2.8-3.3-1.02-4.527-3.269-3.616-6.571q2.336-8.453,4.763-16.882c.685-2.387,2.11-3.325,4.008-2.746,1.808.55,2.5,2.021,1.88,4.309-1.045,3.839-2.171,7.658-3.275,11.524.99.256,1.49-.323,2.043-.631,10.774-5.974,21.513-12.01,32.318-17.922a3.505,3.505,0,0,0,2.06-3.615c-.063-20.11-.008-40.22-.094-60.329a5.537,5.537,0,0,1,3.071-5.434c7-3.891,13.963-7.84,20.955-11.742,2.125-1.185,3.934-.846,4.832.807s.226,3.308-1.9,4.513q-9.144,5.166-18.312,10.277c.258.895,1.012,1.017,1.572,1.33q23.8,13.275,47.61,26.542a2.82,2.82,0,0,0,3.163.164q24.273-13.613,48.607-27.123c.261-.146.5-.336.828-.56-.346-.722-1.035-.906-1.585-1.212-15.872-8.846-31.762-17.656-47.6-26.555a3.123,3.123,0,0,0-3.554.078c-6.091,3.461-12.237,6.824-18.348,10.251-1.43.8-2.828,1.3-4.293.175-1.736-1.33-1.414-3.882.754-5.144,3.393-1.974,6.852-3.835,10.284-5.745,3.027-1.684,6.036-3.4,9.09-5.036a2.168,2.168,0,0,0,1.318-2.167q-.046-19.3-.031-38.6a9.833,9.833,0,0,0-.257-1.334c-2.989,3.015-5.735,5.771-8.46,8.546a3.91,3.91,0,0,1-2.767,1.494,3.024,3.024,0,0,1-1.984-5.327c2.652-2.687,5.33-5.348,8-8.019,1.634-1.635,3.235-3.306,4.913-4.894,2.285-2.163,4.966-2.213,7.2-.025,4.3,4.2,8.532,8.469,12.752,12.747,1.625,1.647,1.691,3.35.338,4.655s-3,1.207-4.685-.452c-2.792-2.755-5.52-5.577-8.284-8.379-1.028.765-.638,1.685-.639,2.45-.029,12.1.014,24.193-.06,36.289a3.347,3.347,0,0,0,2,3.412c16.845,9.31,33.631,18.73,50.49,28.018,2.8,1.545,4.142,3.423,4.053,6.764-.209,7.93-.078,15.87-.062,23.806,0,1.748-.356,3.276-2.257,3.825-2.16.623-3.81-.9-3.829-3.594-.041-5.933-.008-11.865-.018-17.8-.006-2.495-.033-2.512-2.138-1.342q-23.213,12.911-46.437,25.8a2.859,2.859,0,0,0-1.791,3.064c.146,1.915-.5,4.142.275,5.691.877,1.747,3.455.966,5.254,1.431q22.627,5.84,29.3,28.176c.485,1.622.895,1.74,2.26.94q5.778-3.385,11.688-6.545a2.65,2.65,0,0,0,1.577-2.717c-.037-7.011.013-14.023.014-21.034,0-1.736.307-3.275,2.281-3.77,2.233-.56,3.789.875,3.8,3.609.036,6.626.08,13.253-.041,19.877a3.786,3.786,0,0,0,2.342,3.914c10.614,5.78,21.149,11.708,31.711,17.585.665.37,1.341.72,2.49,1.335-1.012-3.6-1.9-6.753-2.778-9.907a25.826,25.826,0,0,1-.8-3.126,2.7,2.7,0,0,1,2.133-3.326c1.613-.406,3.055.112,3.544,1.747,1.9,6.337,3.749,12.691,5.427,19.088a4.477,4.477,0,0,1-3.314,5.172q-8.949,2.7-17.98,5.133c-2.073.562-3.651-.349-4-2.079-.41-2.053.682-3.217,2.54-3.762C2852.991,742.88,2856.908,741.775,2861.4,740.49ZM2768.328,698.9a33.095,33.095,0,1,0,33.158,33.026A33.185,33.185,0,0,0,2768.328,698.9Zm-53.373-12.7H2715c0,9.089.025,18.178-.029,27.267a2.808,2.808,0,0,0,1.659,2.912q5.818,3.07,11.5,6.394c1.458.854,1.869.727,2.391-1q6.679-22.152,29.148-28.02c1.824-.472,4.459.19,5.318-1.37s.186-3.905.316-5.9a2.722,2.722,0,0,0-1.677-2.889q-23.337-12.908-46.6-25.953c-1.855-1.042-2.11-.553-2.1,1.3C2714.988,668.024,2714.956,677.113,2714.956,686.2Z" transform="translate(-2664.82 -565.704)"/>
  <path id="Path_99" data-name="Path 99" class="cls-1" d="M2778.237,744.076c0-2.849-.033-5.7.008-8.546.043-3.062,1.417-4.6,4.447-4.753a38.148,38.148,0,0,1,7.609.188,10.312,10.312,0,0,1,8.574,9.523c.091,2.46.091,4.929,0,7.39a10.152,10.152,0,0,1-9.027,9.56,65.4,65.4,0,0,1-7.154.121c-2.914-.076-4.381-1.57-4.443-4.476C2778.189,750.082,2778.238,747.078,2778.237,744.076Zm14.588.108c0-6.266-1.256-7.595-6.778-7.4-1.278.045-1.771.406-1.749,1.726q.1,5.659,0,11.321c-.023,1.328.476,1.812,1.756,1.69.688-.066,1.387.007,2.079-.02,3.1-.115,4.618-1.658,4.689-4.777C2792.842,745.879,2792.825,745.031,2792.825,744.184Z" transform="translate(-2673.202 -577.899)"/>
  <path id="Path_100" data-name="Path 100" class="cls-1" d="M2771.294,744.143c0,2.541.028,5.083-.007,7.624-.048,3.595-1.948,5.667-5.465,5.781-3.231.106-6.467.037-9.7.027-1.974-.007-3.363-.913-3.4-2.959-.035-2.07,1.41-3,3.326-3.066,2.54-.088,5.085-.121,7.624-.013,1.98.083,1.483-1.253,1.544-2.318.065-1.138.11-2.113-1.6-2.01-2.379.143-4.774.068-7.161.024-2.362-.043-3.839-1.306-3.777-3.135.06-1.774,1.447-2.891,3.713-2.918,2.464-.03,4.932-.075,7.394.011,1.849.066,1.4-1.211,1.42-2.2.018-1.019.354-2.248-1.441-2.2-2.462.071-4.93.056-7.393,0-2.341-.057-3.658-1.161-3.691-2.949s1.31-3.026,3.588-3.083c3.155-.079,6.321-.133,9.47.023,3.7.185,5.516,2.235,5.555,5.967C2771.315,739.215,2771.294,741.679,2771.294,744.143Z" transform="translate(-2671.314 -577.899)"/>
</svg>
