<svg xmlns="http://www.w3.org/2000/svg" width="201.239" height="112.708" viewBox="0 0 201.239 112.708">
  <defs>
    <style>
      .cls-1 {
        fill: #393939;
      }
    </style>
  </defs>
  <g id="Group_34" data-name="Group 34" transform="translate(-1437.804 -453.511)">
    <g id="Group_1" data-name="Group 1" transform="translate(1438.339 480.458)">
      <path id="Path_1" data-name="Path 1" class="cls-1" d="M1438.844,542.749l-.169-44.582,200.244-.761.169,44.582Zm1.064-43.359.159,42.127,197.789-.752-.16-42.126Z" transform="translate(-1438.675 -497.406)"/>
    </g>
    <g id="Group_2" data-name="Group 2" transform="translate(1496.863 458.216)">
      <path id="Path_2" data-name="Path 2" class="cls-1" d="M1534.01,475.922l41.511-14.746,41.622,14.429Zm41.516-13.445-34.315,12.189,68.721-.261Z" transform="translate(-1534.01 -461.176)"/>
    </g>
    <g id="Group_3" data-name="Group 3" transform="translate(1488.831 528.989)">
      <path id="Path_3" data-name="Path 3" class="cls-1" d="M1520.956,584.743l-.03-7.9,99.461-.378.03,7.9Zm1.2-6.68.02,5.447,97.005-.368-.02-5.447Z" transform="translate(-1520.926 -576.462)"/>
    </g>
    <g id="Group_4" data-name="Group 4" transform="translate(1484.916 453.511)">
      <path id="Path_4" data-name="Path 4" class="cls-1" d="M1518.465,477.648l-3.917-5.715,1.087,0c1.766-.514,34.776-12.183,52.169-18.347l.2-.072.2.07,52.986,18.177-3.632,5.513Zm-1.79-4.782,2.434,3.552,97.788-.371,2.4-3.64-51.286-17.595C1529.259,468.544,1519.294,472,1516.676,472.866Z" transform="translate(-1514.548 -453.511)"/>
    </g>
    <g id="Group_5" data-name="Group 5" transform="translate(1489.329 481.785)">
      <rect id="Rectangle_1" data-name="Rectangle 1" class="cls-1" width="1.228" height="43.202" transform="translate(0 0.005) rotate(-0.217)"/>
    </g>
    <g id="Group_6" data-name="Group 6" transform="translate(1494.367 481.766)">
      <rect id="Rectangle_2" data-name="Rectangle 2" class="cls-1" width="1.228" height="43.202" transform="matrix(1, -0.004, 0.004, 1, 0, 0.005)"/>
    </g>
    <g id="Group_7" data-name="Group 7" transform="translate(1507.829 481.715)">
      <rect id="Rectangle_3" data-name="Rectangle 3" class="cls-1" width="1.228" height="43.202" transform="matrix(1, -0.004, 0.004, 1, 0, 0.005)"/>
    </g>
    <g id="Group_8" data-name="Group 8" transform="translate(1512.868 481.696)">
      <rect id="Rectangle_4" data-name="Rectangle 4" class="cls-1" width="1.228" height="43.202" transform="translate(0 0.005) rotate(-0.217)"/>
    </g>
    <g id="Group_9" data-name="Group 9" transform="translate(1526.437 481.644)">
      <rect id="Rectangle_5" data-name="Rectangle 5" class="cls-1" width="1.228" height="43.202" transform="translate(0 0.005) rotate(-0.217)"/>
    </g>
    <g id="Group_10" data-name="Group 10" transform="translate(1531.475 481.625)">
      <rect id="Rectangle_6" data-name="Rectangle 6" class="cls-1" width="1.228" height="43.202" transform="matrix(1, -0.004, 0.004, 1, 0, 0.005)"/>
    </g>
    <g id="Group_11" data-name="Group 11" transform="translate(1544.723 481.575)">
      <rect id="Rectangle_7" data-name="Rectangle 7" class="cls-1" width="1.228" height="43.202" transform="translate(0 0.005) rotate(-0.217)"/>
    </g>
    <g id="Group_12" data-name="Group 12" transform="translate(1549.761 481.556)">
      <rect id="Rectangle_8" data-name="Rectangle 8" class="cls-1" width="1.228" height="43.202" transform="matrix(1, -0.004, 0.004, 1, 0, 0.005)"/>
    </g>
    <g id="Group_13" data-name="Group 13" transform="translate(1562.689 481.507)">
      <rect id="Rectangle_9" data-name="Rectangle 9" class="cls-1" width="1.228" height="43.202" transform="translate(0 0.005) rotate(-0.217)"/>
    </g>
    <g id="Group_14" data-name="Group 14" transform="translate(1568.048 481.486)">
      <rect id="Rectangle_10" data-name="Rectangle 10" class="cls-1" width="1.228" height="43.202" transform="matrix(1, -0.004, 0.004, 1, 0, 0.005)"/>
    </g>
    <g id="Group_15" data-name="Group 15" transform="translate(1581.332 481.436)">
      <rect id="Rectangle_11" data-name="Rectangle 11" class="cls-1" width="1.228" height="43.202" transform="matrix(1, -0.004, 0.004, 1, 0, 0.005)"/>
    </g>
    <g id="Group_16" data-name="Group 16" transform="translate(1586.37 481.417)">
      <rect id="Rectangle_12" data-name="Rectangle 12" class="cls-1" width="1.228" height="43.202" transform="matrix(1, -0.004, 0.004, 1, 0, 0.005)"/>
    </g>
    <g id="Group_33" data-name="Group 33" transform="translate(1437.804 549.064)">
      <g id="Group_17" data-name="Group 17" transform="translate(0 0.978)">
        <path id="Path_5" data-name="Path 5" class="cls-1" d="M1449.97,623.783l-1.924.007-1.463-3.989-5.478.021-1.469,4-1.833.007,5.081-13.065,1.942-.007Zm-6.145-11.374-2.23,6.036,4.47-.016Z" transform="translate(-1437.804 -610.757)"/>
      </g>
      <g id="Group_18" data-name="Group 18" transform="translate(13.417 0.914)">
        <path id="Path_6" data-name="Path 6" class="cls-1" d="M1464.773,615.913l5.746,7.784-2.2.008-4.752-6.615-2.154,2.061.017,4.58-1.723.007-.049-13.046,1.722-.006.025,6.467,6.59-6.492,2.253-.009Z" transform="translate(-1459.659 -610.652)"/>
      </g>
      <g id="Group_19" data-name="Group 19" transform="translate(24.093 0.887)">
        <path id="Path_7" data-name="Path 7" class="cls-1" d="M1489.215,623.633l-1.924.007-1.462-3.988-5.479.021-1.469,4-1.832.007,5.08-13.065,1.943-.007Zm-6.144-11.373-2.231,6.036,4.471-.017Z" transform="translate(-1477.05 -610.608)"/>
      </g>
      <g id="Group_20" data-name="Group 20" transform="translate(36.269 0.824)">
        <path id="Path_8" data-name="Path 8" class="cls-1" d="M1508.006,626.795l-.012-3.243-9.436.036.012,3.243-1.667.006-.018-4.745,1.282,0c.983-1.762,1.684-5.43,1.67-9.021l-.01-2.528,8.337-.032.044,11.543,1.448-.005.018,4.745Zm-1.558-14.78-4.93.018.007,1.777a21.62,21.62,0,0,1-1.452,8.269l6.413-.024Z" transform="translate(-1496.885 -610.506)"/>
      </g>
      <g id="Group_21" data-name="Group 21" transform="translate(50.735 0.777)">
        <path id="Path_9" data-name="Path 9" class="cls-1" d="M1529.489,611.933l-7.311.028.015,4.086,6.834-.026.006,1.448-6.834.026.017,4.508,7.4-.028.005,1.5-9.125.035-.05-13.046,9.033-.034Z" transform="translate(-1520.45 -610.43)"/>
      </g>
      <g id="Group_22" data-name="Group 22" transform="translate(61.948 0.72)">
        <path id="Path_10" data-name="Path 10" class="cls-1" d="M1541.1,610.377l4.238,11.032,4.007-11.063,2.4-.009.05,13.046-1.63.006-.042-10.884-4.044,10.9-1.5.005-4.2-10.867.041,10.883-1.65.006-.049-13.045Z" transform="translate(-1538.715 -610.336)"/>
      </g>
      <g id="Group_23" data-name="Group 23" transform="translate(77.886 0.669)">
        <path id="Path_11" data-name="Path 11" class="cls-1" d="M1564.677,610.293l1.723-.006.042,11.047h.037l6.353-11.072,2.18-.009.05,13.046-1.722.006-.042-11.085h-.037l-6.37,11.11-2.163.008Z" transform="translate(-1564.677 -610.254)"/>
      </g>
      <g id="Group_24" data-name="Group 24" transform="translate(89.643 0.623)">
        <path id="Path_12" data-name="Path 12" class="cls-1" d="M1585.954,623.257l-2.125.008,4.34-5.641a3.4,3.4,0,0,1-3.257-3.671c-.009-2.455,1.561-3.744,4.109-3.753l5.606-.021.05,13.045-1.722.007-.022-5.57-2.694.01Zm6.956-11.606-3.3.012c-1.906.007-2.967.689-2.96,2.283.006,1.613,1.053,2.268,2.977,2.261l3.3-.012Z" transform="translate(-1583.829 -610.179)"/>
      </g>
      <g id="Group_25" data-name="Group 25" transform="translate(106.998 0.558)">
        <path id="Path_13" data-name="Path 13" class="cls-1" d="M1622.585,611.575l-4.378.017.043,11.544-1.723.006-.043-11.543-4.379.017-.005-1.5,10.479-.04Z" transform="translate(-1612.1 -610.073)"/>
      </g>
      <g id="Group_26" data-name="Group 26" transform="translate(115.713 0.538)">
        <path id="Path_14" data-name="Path 14" class="cls-1" d="M1638.462,623.066l-1.924.007-1.462-3.989-5.479.021-1.468,4-1.832.007,5.08-13.065,1.943-.007Zm-6.144-11.373-2.231,6.036,4.471-.017Z" transform="translate(-1626.297 -610.041)"/>
      </g>
      <g id="Group_27" data-name="Group 27" transform="translate(127.726 0.477)">
        <path id="Path_15" data-name="Path 15" class="cls-1" d="M1656.937,622.987l-1.722.006-.043-11.543-4.819.019-.228,7.348c-.082,2.621-1.028,4.475-3.006,4.482a4.061,4.061,0,0,1-1.247-.252l-.006-1.466a2.225,2.225,0,0,0,.935.18c.935,0,1.61-.519,1.689-3.835l.208-7.953,8.19-.031Z" transform="translate(-1645.865 -609.941)"/>
      </g>
      <g id="Group_28" data-name="Group 28" transform="translate(140.134 0.445)">
        <path id="Path_16" data-name="Path 16" class="cls-1" d="M1678.244,622.915l-1.924.007-1.463-3.988-5.478.021-1.469,4-1.833.007,5.081-13.065,1.942-.007Zm-6.144-11.373-2.231,6.036,4.471-.017Z" transform="translate(-1666.078 -609.889)"/>
      </g>
      <g id="Group_29" data-name="Group 29" transform="translate(153.55 0.382)">
        <path id="Path_17" data-name="Path 17" class="cls-1" d="M1698.316,622.831l-1.722.007-.023-6.1-6.89.026.024,6.1-1.723.006-.05-13.045,1.723-.007.021,5.442,6.889-.026-.02-5.442,1.722-.007Z" transform="translate(-1687.932 -609.786)"/>
      </g>
      <g id="Group_30" data-name="Group 30" transform="translate(165.349 0.336)">
        <path id="Path_18" data-name="Path 18" class="cls-1" d="M1717.637,611.214l-4.378.016.044,11.543-1.722.007-.044-11.543-4.379.017-.006-1.5,10.479-.04Z" transform="translate(-1707.152 -609.712)"/>
      </g>
      <g id="Group_31" data-name="Group 31" transform="translate(176.255)">
        <path id="Path_19" data-name="Path 19" class="cls-1" d="M1737.413,615.864c.015,3.829-2.08,6.952-6.221,6.968-4.178.016-6.26-3.164-6.274-6.957-.016-4.068,2.411-6.7,6.2-6.711C1735.171,609.149,1737.4,611.98,1737.413,615.864Zm-10.773.133c.013,3.262,1.8,5.362,4.564,5.351,2.73-.01,4.5-2.142,4.487-5.385-.012-3.225-1.8-5.307-4.564-5.3C1728.05,610.678,1726.63,613.211,1726.641,616Z" transform="translate(-1724.918 -609.164)"/>
      </g>
      <g id="Group_32" data-name="Group 32" transform="translate(190.887 0.258)">
        <path id="Path_20" data-name="Path 20" class="cls-1" d="M1754.323,609.584c2.163-.008,4.163.845,4.172,3.246a2.922,2.922,0,0,1-1.913,2.81,3.116,3.116,0,0,1,2.523,3.289c.011,3-2.441,3.692-4.933,3.7l-5.369.02-.05-13.045Zm-3.862,5.6,3.1-.012c1.466-.005,3.224-.122,3.217-2.082s-1.528-2.047-3.067-2.041l-3.262.012Zm.023,6.01,3.444-.013c1.74-.006,3.445-.123,3.436-2.413-.009-2.272-2.006-2.246-3.747-2.239l-3.152.012Z" transform="translate(-1748.753 -609.584)"/>
      </g>
    </g>
  </g>
</svg>
