<svg id="Group_61" data-name="Group 61" xmlns="http://www.w3.org/2000/svg" width="168.409" height="168.418" viewBox="0 0 168.409 168.418">
  <defs>
    <style>
      .cls-1 {
        fill: #393939;
      }
    </style>
  </defs>
  <path id="Path_150" data-name="Path 150" class="cls-1" d="M1464.684,439.391a30.466,30.466,0,0,1-7.149,14.789c-8.791,9.673-19.674,13.067-32.111,9.3s-19.837-12.586-21.66-25.5a30.605,30.605,0,0,1,26.141-34.463c1.291-.177,1.661-.615,1.636-1.865-.072-3.631-.087-7.265.006-10.894a2.314,2.314,0,0,0-1.661-2.625,10.97,10.97,0,0,1-5.452-15.5c3.415-6.012,10.7-7.8,16.293-3.825a10.538,10.538,0,0,1,4.711,10.229,10.7,10.7,0,0,1-6.682,9.065,2.33,2.33,0,0,0-1.722,2.6c.105,3.692.057,7.387.023,11.081-.011,1.017.183,1.572,1.383,1.722a28.851,28.851,0,0,1,14.538,6.054,1.528,1.528,0,0,0,2.364-.065q6.941-6.044,13.989-11.961a4.364,4.364,0,0,0,1.634-3.174,30.8,30.8,0,0,1,60.79-3.151,3.153,3.153,0,0,0,1.962,2.429c5.932,2.819,11.856,5.65,17.74,8.566a2.916,2.916,0,0,0,3.227-.118,10.543,10.543,0,0,1,12.334.436c3.673,2.655,5.448,6.456,4.536,10.993a10.921,10.921,0,0,1-8.566,8.97,11.171,11.171,0,0,1-13.452-12.936c.352-1.7-.149-2.236-1.508-2.867-4.762-2.215-9.477-4.532-14.193-6.844-1.015-.5-1.433-.57-1.575.84a29.661,29.661,0,0,1-8.715,18.458c-1.084,1.086-1.042,1.735-.141,2.9,4.162,5.406,8.238,10.877,12.292,16.365a2.759,2.759,0,0,0,2.467,1.257,30.835,30.835,0,0,1,30.455,26.413c2.276,13.936-6.41,28.505-19.921,33.415-13.6,4.941-28.19.116-36.385-12.151-.956-1.432-1.488-1.471-2.751-.453-2.726,2.2-5.545,4.294-8.408,6.315a1.842,1.842,0,0,0-.8,2.474,23.334,23.334,0,0,1,1.177,8.134,1.854,1.854,0,0,0,1.265,1.994c6.1,2.9,12.186,5.827,18.234,8.831a2.447,2.447,0,0,0,2.714-.318,11.157,11.157,0,1,1-5.034,7.132c.3-1.3.049-1.815-1.143-2.368-5.1-2.375-10.163-4.84-15.2-7.347-1.156-.575-1.583-.535-2.012.84-3.692,11.814-11.625,19.239-23.689,21.881-16.776,3.674-33.96-8.5-36.372-25.617-.236-1.682-.836-2.008-2.352-1.964-3.5.1-7.014.084-10.517,0a2.261,2.261,0,0,0-2.509,1.575c-2.722,6.048-9.359,8.562-15.018,5.831a11.444,11.444,0,0,1-6.444-11.517,11.586,11.586,0,0,1,8.694-9.517c5.115-1.031,9.866.907,12.184,5.566,1.1,2.21,2.37,2.711,4.587,2.581,3.12-.181,6.259-.084,9.389-.025,1.185.021,1.745-.229,1.936-1.581,1.819-12.852,11.134-22.8,24.024-25.775a30.627,30.627,0,0,1,32.179,13.18c.966,1.442,1.539,1.594,2.88.5,2.716-2.213,5.556-4.275,8.4-6.326a1.691,1.691,0,0,0,.806-2.166,30.767,30.767,0,0,1,20.794-38.273c.293-.084.566-.227,1.006-.406-3.316-4.427-6.572-8.781-9.833-13.128-.827-1.1-1.461-2.659-2.566-3.154-1.181-.53-2.379.95-3.593,1.488a30.9,30.9,0,0,1-42.6-20.5c-.151-.581-.326-1.158-.558-1.97-4.269,3.652-8.391,7.187-12.526,10.707-.551.469-.322.834.017,1.263a30.083,30.083,0,0,1,6.37,16.755c.065.836.686,1.145,1.213,1.556,4.387,3.431,8.81,6.821,13.159,10.3a1.957,1.957,0,0,0,2.6.164,10.55,10.55,0,0,1,12.319.785c3.457,2.65,5.166,6.345,4.282,10.751a10.929,10.929,0,0,1-8.517,9.008,11.2,11.2,0,0,1-13.382-13.6,2.425,2.425,0,0,0-1.093-3.065C1472.033,445.172,1468.511,442.368,1464.684,439.391Zm53.683-23.1a25.059,25.059,0,0,0,6.258-29.129c-4.414-9.858-14.936-16.287-27.249-14.548-9.844,1.389-18.82,10.164-20.677,20.453-1.56,8.631,2.044,18.675,8.057,22.834.019-.411.048-.777.055-1.143.093-5.031,3.364-8.57,8.391-8.69,5.754-.137,11.511-.065,17.266.025a7.9,7.9,0,0,1,6.338,3.484C1518.24,411.477,1518.581,413.637,1518.367,416.289ZM1555,489.021c7.7-6.166,10.414-18.14,6.49-28.051a25.332,25.332,0,0,0-25-15.668c-11.827.991-20.845,8.9-23.235,20.306-1.928,9.2,2.36,19.386,7.97,23.257.021-.349.051-.648.057-.945.116-5.459,3.5-8.924,8.9-8.972,5.444-.051,10.89-.059,16.334.023a8.374,8.374,0,0,1,8.113,6.345A24.948,24.948,0,0,1,1555,489.021ZM1451.1,452.636c7.564-6.044,10.393-17.778,6.831-27.44a25.275,25.275,0,0,0-47.992,1.983c-2.705,9.469.745,20.009,7.359,25.232a6.564,6.564,0,0,0,.13-.733c.28-5.981,3.549-9.172,9.49-9.206,4.945-.025,9.89,0,14.835-.009a9.279,9.279,0,0,1,4.884,1.072C1450.009,445.521,1451.4,448.531,1451.1,452.636Zm36.494,70.254c8.585-7.981,10.686-19.456,5.764-30.042-4.322-9.3-15.157-15.075-25.788-13.751a25.479,25.479,0,0,0-21.672,20.27c-1.7,8.856,1.947,18.837,7.9,23.074.038-.267.093-.511.1-.756.251-5.656,3.457-8.993,9.035-9.119,5.193-.12,10.391-.065,15.586-.013a8.77,8.77,0,0,1,7.768,4.111C1487.478,518.483,1487.651,520.489,1487.6,522.891ZM1434.252,448v.013c-2.623,0-5.25-.072-7.871.021-2.358.082-3.334,1.2-3.366,3.572a21.823,21.823,0,0,1-.029,2.993c-.248,1.646.577,2.316,1.974,2.827a25.641,25.641,0,0,0,15.426.96c5.122-1.29,5.12-1.305,5.105-6.444-.006-2.951-.92-3.892-3.928-3.935C1439.128,447.974,1436.69,448,1434.252,448Zm67.362-36.471c-2.56,0-5.122-.061-7.68.015s-3.564,1.175-3.594,3.747c-.013,1.061.091,2.132-.027,3.183-.145,1.307.461,1.893,1.6,2.333a25.381,25.381,0,0,0,15.58,1.168c5.366-1.322,5.359-1.341,5.322-6.65-.019-2.7-.971-3.722-3.7-3.787C1506.611,411.479,1504.113,411.526,1501.614,411.53Zm-30.754,106.6c-2.625,0-5.25-.051-7.873.017-2.429.061-3.478,1.206-3.507,3.644a27.653,27.653,0,0,1-.029,3.183c-.181,1.4.492,2.019,1.672,2.467a26,26,0,0,0,17.409.636c3.434-1.061,3.427-1.078,3.427-4.737,0-.5,0-1,0-1.5-.021-2.575-1.023-3.648-3.6-3.7C1475.86,518.085,1473.359,518.125,1470.86,518.127Zm67.393-22.561a22.246,22.246,0,0,0,7.818-1.219c3.217-.994,3.21-1.017,3.21-4.345,0-.749.017-1.5-.006-2.246-.059-2-.96-3.158-2.89-3.187q-8.333-.132-16.666,0c-1.851.029-2.8,1.166-2.884,3.029-.059,1.246.09,2.509-.044,3.743-.156,1.406.522,1.987,1.713,2.436A25.184,25.184,0,0,0,1538.254,495.566Zm-98.374-117.7a5.561,5.561,0,0,0-5.644-5.547,5.583,5.583,0,1,0,.076,11.166A5.556,5.556,0,0,0,1439.879,377.871Zm-30.846,126.2a5.606,5.606,0,1,0,11.212.124,5.606,5.606,0,0,0-11.212-.124Zm126.242,19.691a5.62,5.62,0,0,0-11.239-.008,5.62,5.62,0,0,0,11.239.008Zm30.842-112.245a5.55,5.55,0,0,0-5.648-5.534,5.577,5.577,0,1,0,.084,11.153A5.537,5.537,0,0,0,1566.117,411.521ZM1493.2,453.638a5.621,5.621,0,1,0-5.616,5.574A5.582,5.582,0,0,0,1493.2,453.638Z" transform="translate(-1403.382 -366.678)"/>
  <path id="Path_151" data-name="Path 151" class="cls-1" d="M1467.113,383.261a11.2,11.2,0,1,1-11.191-11.235A11.143,11.143,0,0,1,1467.113,383.261Zm-5.593-.141a5.55,5.55,0,0,0-5.7-5.475,5.6,5.6,0,1,0,.207,11.189A5.621,5.621,0,0,0,1461.52,383.12Z" transform="translate(-1357.701 -360.768)"/>
  <path id="Path_152" data-name="Path 152" class="cls-1" d="M1484.423,417.8a11.188,11.188,0,1,1-11.106-11.138A11.228,11.228,0,0,1,1484.423,417.8Zm-11.164-5.522a5.6,5.6,0,1,0-.048,11.2,5.6,5.6,0,1,0,.048-11.2Z" transform="translate(-1338.548 -322.489)"/>
  <path id="Path_153" data-name="Path 153" class="cls-1" d="M1435.182,400.659a11.232,11.232,0,1,1-11.155-11.317A11.235,11.235,0,0,1,1435.182,400.659Zm-5.621-.036a5.547,5.547,0,0,0-5.534-5.656,5.6,5.6,0,1,0,5.534,5.656Z" transform="translate(-1393.064 -341.632)"/>
  <path id="Path_154" data-name="Path 154" class="cls-1" d="M1441.313,444.989a11.156,11.156,0,1,1,11.18-11.239A11.193,11.193,0,0,1,1441.313,444.989Zm5.566-11.132a5.542,5.542,0,0,0-5.575-5.608,5.578,5.578,0,1,0-.059,11.155A5.532,5.532,0,0,0,1446.879,433.857Z" transform="translate(-1373.917 -304.792)"/>
</svg>
