<svg xmlns="http://www.w3.org/2000/svg" width="160.023" height="148.916" viewBox="0 0 160.023 148.916">
  <defs>
    <style>
      .cls-1 {
        fill: #393939;
      }
    </style>
  </defs>
  <g id="Group_39" data-name="Group 39" transform="translate(0 0)">
    <path id="Path_25" data-name="Path 25" class="cls-1" d="M-2050.1-472.894a3.1,3.1,0,0,0,3.1-3.1,3.1,3.1,0,0,0-3.1-3.1,3.1,3.1,0,0,0-3.1,3.1,3.1,3.1,0,0,0,3.1,3.1Zm0,0" transform="translate(2156.061 535.373)"/>
    <path id="Path_26" data-name="Path 26" class="cls-1" d="M-2262.9-584.894a3.1,3.1,0,0,0,3.1-3.1,3.1,3.1,0,0,0-3.1-3.1,3.1,3.1,0,0,0-3.1,3.1,3.1,3.1,0,0,0,3.1,3.1Zm0,0" transform="translate(2285.535 603.498)"/>
    <path id="Path_27" data-name="Path 27" class="cls-1" d="M-2279.472-521.225l4.736,2.033a15.712,15.712,0,0,0,12.314,0l4.732-2.031a61.782,61.782,0,0,0,6.19-3.079c2.776,20.329,16.624,38.355,36.411,46.834l4.737,2.033a15.714,15.714,0,0,0,12.313,0l4.734-2.031c22.012-9.433,36.929-30.988,36.929-54.581v-37.914a9.386,9.386,0,0,0-9.376-9.376h-55.008v-34.38a9.387,9.387,0,0,0-9.377-9.376h-76.886a9.386,9.386,0,0,0-9.376,9.376V-575.8c0,23.624,14.945,45.161,36.927,54.58Zm116.845-48.738v37.914c0,20.717-13.318,40.343-33.141,48.835l-4.733,2.033a9.437,9.437,0,0,1-7.389,0l-4.736-2.033c-18.726-8.024-31.521-25.518-32.99-44.887a62.058,62.058,0,0,0,11.708-11.124,15.612,15.612,0,0,0,10.022,3.641,15.613,15.613,0,0,0,10.338-3.907,3.126,3.126,0,0,0,.276-4.412,3.125,3.125,0,0,0-4.412-.275,9.372,9.372,0,0,1-6.2,2.343,9.359,9.359,0,0,1-6.2-2.343c-.046-.041-.094-.075-.142-.113a57.98,57.98,0,0,0,9.4-28.8h55.081a3.129,3.129,0,0,1,3.125,3.125Zm-147.521-43.756a3.128,3.128,0,0,1,3.125-3.125h76.886a3.13,3.13,0,0,1,3.126,3.125V-575.8c0,21.344-13.6,40.465-33.139,48.835l-4.734,2.033a9.438,9.438,0,0,1-7.39,0l-4.737-2.033c-19.821-8.493-33.137-28.118-33.137-48.835Zm0,0" transform="translate(2316.4 623.095)"/>
    <path id="Path_28" data-name="Path 28" class="cls-1" d="M-2209.693-479.1H-2246.9a3.1,3.1,0,0,0-3.1,3.1,21.73,21.73,0,0,0,21.7,21.7,21.729,21.729,0,0,0,21.7-21.7,3.1,3.1,0,0,0-3.1-3.1Zm-18.6,18.6a15.534,15.534,0,0,1-15.191-12.405h30.385a15.536,15.536,0,0,1-15.193,12.405Zm0,0" transform="translate(2276.02 535.443)"/>
    <path id="Path_29" data-name="Path 29" class="cls-1" d="M-2259.863-536.894a9.293,9.293,0,0,1,6.153,2.326,3.1,3.1,0,0,0,4.378-.272,3.1,3.1,0,0,0-.274-4.377,15.494,15.494,0,0,0-10.257-3.877,15.492,15.492,0,0,0-10.254,3.877,3.1,3.1,0,0,0-.274,4.377,3.1,3.1,0,0,0,4.375.272,9.3,9.3,0,0,1,6.153-2.326Zm0,0" transform="translate(2288.698 574.366)"/>
    <path id="Path_30" data-name="Path 30" class="cls-1" d="M-2174.118-539.219a3.1,3.1,0,0,0-.274,4.379,3.1,3.1,0,0,0,4.375.272,9.3,9.3,0,0,1,6.153-2.326,9.284,9.284,0,0,1,6.153,2.326,3.1,3.1,0,0,0,4.378-.272,3.1,3.1,0,0,0-.273-4.379,15.5,15.5,0,0,0-10.257-3.876,15.489,15.489,0,0,0-10.254,3.876Zm0,0" transform="translate(2230.418 574.366)"/>
    <path id="Path_31" data-name="Path 31" class="cls-1" d="M-2230.9-584.894h37.208a3.1,3.1,0,0,0,3.1-3.1,3.1,3.1,0,0,0-3.1-3.1H-2230.9a3.1,3.1,0,0,0-3.1,3.1,3.1,3.1,0,0,0,3.1,3.1Zm0,0" transform="translate(2266.29 603.498)"/>
    <path id="Path_32" data-name="Path 32" class="cls-1" d="M-2085.2-345.39a3.1,3.1,0,0,0,3.1,3.1h37.208a3.1,3.1,0,0,0,3.1-3.1,21.73,21.73,0,0,0-21.7-21.7,21.73,21.73,0,0,0-21.705,21.7Zm21.705-15.5a15.531,15.531,0,0,1,15.192,12.4h-30.384a15.53,15.53,0,0,1,15.192-12.4Zm0,0" transform="translate(2175.796 467.27)"/>
    <path id="Path_33" data-name="Path 33" class="cls-1" d="M-1992.911-422.32a9.282,9.282,0,0,1-6.153,2.326,9.29,9.29,0,0,1-6.153-2.326,3.1,3.1,0,0,0-4.376.274,3.1,3.1,0,0,0,.274,4.377,15.486,15.486,0,0,0,10.254,3.876,15.489,15.489,0,0,0,10.256-3.876,3.1,3.1,0,0,0,.274-4.377,3.1,3.1,0,0,0-4.378-.274Zm0,0" transform="translate(2130.25 501.273)"/>
    <path id="Path_34" data-name="Path 34" class="cls-1" d="M-2018.1-472.894h18.6a3.1,3.1,0,0,0,3.1-3.1,3.1,3.1,0,0,0-3.1-3.1h-18.6a3.1,3.1,0,0,0-3.1,3.1,3.1,3.1,0,0,0,3.1,3.1Zm0,0" transform="translate(2136.884 535.373)"/>
  </g>
</svg>
