<svg xmlns="http://www.w3.org/2000/svg" width="183.491" height="183.939" viewBox="0 0 183.491 183.939">
  <defs>
    <style>
      .cls-1 {
        fill: #393939;
      }
    </style>
  </defs>
  <g id="Group_63" data-name="Group 63" transform="translate(0)">
    <path id="Path_163" data-name="Path 163" class="cls-1" d="M2277.737,405.549c.467-1.127.94-2.251,1.4-3.382q9.812-24.218,19.644-48.428a4.4,4.4,0,0,0,.114-3.483,16.558,16.558,0,0,1,5.534-19.092,3.823,3.823,0,0,0,1.682-3.593c-.108-2.937-.055-5.882-.026-8.824a8.977,8.977,0,0,1,8.816-8.975,8.87,8.87,0,0,1,8.919,9.028c.025,3.146.036,6.294-.013,9.44a2.662,2.662,0,0,0,1.109,2.426c6.752,5.289,8.724,11.987,5.925,20.2a4.066,4.066,0,0,0,.463,3.114q16.848,41.6,33.719,83.191a5.784,5.784,0,0,1,.586,3.166c-.67,4.254-1.281,8.516-1.934,12.772-.079.515.048,1.27-.591,1.422-2.13.509-1.234,1.737-.77,2.885,1.229,3.04,2.4,6.107,3.721,9.1.6,1.35.492,1.993-1.015,2.559-3.386,1.271-3.355,1.358-4.727-2.038q-1.689-4.18-3.373-8.363c-.281-.7-.537-1.6-1.545-.975-1.574.974-2.014.108-2.548-1.216q-13.079-32.4-26.23-64.776-5.35-13.2-10.708-26.4c-.248-.609-.307-1.351-1.092-1.8q-4.594,11.331-9.162,22.6c-4.313,10.636-8.586,21.287-12.985,31.888a2.86,2.86,0,0,0,.8,3.688q35.034,34.921,69.981,69.928a5.4,5.4,0,0,1,1.576,1.834,3.482,3.482,0,0,1-2.006.2q-88.881.017-177.763.053c-1.875,0-2.357-.476-2.354-2.353q.077-88.864.042-177.729v-1.635l94,94Zm-6.131,13.944.671-.429c.85-2.086,1.623-4.209,2.581-6.244a2.014,2.014,0,0,0-.6-2.654q-42.2-42.132-84.36-84.293c-.345-.345-.595-.966-1.475-.719v12.858c0,4.884,0,4.884,4.79,4.986a5.5,5.5,0,0,0,.615,0c.808-.073,1,.335,1.083,1.087.452,4.25.374,4.364-3.789,4.368-.411,0-.823.031-1.23,0-1.035-.089-1.494.32-1.477,1.4.041,2.6.062,5.2-.008,7.8-.034,1.237.527,1.481,1.6,1.453,2.188-.056,4.378-.016,6.568-.016,3.642,0,3.567,0,3.612,3.736.017,1.487-.5,1.856-1.884,1.806-2.6-.093-5.2.053-7.8-.056-1.554-.064-2.237.331-2.116,2.025.141,1.974.031,3.966.032,5.95,0,2.824,0,2.824,2.895,2.825.274,0,.548,0,.821,0,3.09.05,2.749-.415,2.748,2.7,0,3.187.343,2.68-2.706,2.733-.821.015-1.646.049-2.462-.007-1.009-.07-1.31.407-1.3,1.337.027,2.668.052,5.337-.009,8-.026,1.178.56,1.327,1.52,1.307,2.189-.045,4.38-.014,6.569-.014,3.7,0,3.633,0,3.685,3.619.019,1.4-.313,1.927-1.8,1.866-2.8-.115-5.61.009-8.414-.05-1.157-.024-1.585.388-1.56,1.54.054,2.392.084,4.79-.011,7.181-.056,1.406.37,2.03,1.836,1.851.741-.091,1.519.084,2.252-.034,2.01-.325,2.569.475,2.457,2.448-.172,3-.042,3.008-3.111,3.008a14.493,14.493,0,0,1-1.641-.009c-1.309-.147-1.846.321-1.792,1.711.1,2.39.112,4.791,0,7.18-.074,1.522.548,1.82,1.909,1.776,2.8-.089,5.611-.038,8.416-.015.557,0,1.391-.251,1.4.716.009,1.49.534,3.19-.25,4.4-.578.893-2.168.252-3.3.334-.817.06-1.646-.039-2.462.022-1.818.135-4.131-.81-5.323.429-1.094,1.135-.326,3.4-.342,5.163-.042,4.875-.014,4.875,4.775,5.023.2.007.411.014.615.009.646-.017.94.25,1.072.931.725,3.757.1,4.584-3.586,4.586-.479,0-.961.038-1.436-.006-1.031-.094-1.489.275-1.467,1.378.054,2.6.058,5.2,0,7.8-.029,1.231.547,1.5,1.627,1.471,2.12-.052,4.242-.014,6.364-.014,3.9,0,3.854,0,3.78,3.962-.021,1.132-.3,1.561-1.494,1.529-2.872-.078-5.749.028-8.621-.048-1.221-.032-1.71.307-1.663,1.594.084,2.323.134,4.658-.013,6.975-.116,1.793.593,2.286,2.236,2.1,1.014-.112,2.053.017,3.077-.029.881-.04,1.14.321,1.214,1.188.363,4.254.391,4.25-3.886,4.255a9.007,9.007,0,0,1-1.026-.006c-1.105-.124-1.624.256-1.595,1.464q.093,4,0,8c-.028,1.227.54,1.506,1.625,1.473,1.846-.055,3.7-.014,5.542-.014,3.312,0,3.287,0,3.32-3.379.036-3.592-.537-3.185,2.651-3.194,3.213-.008,2.758-.369,2.806,2.867.01.753.042,1.508-.006,2.258-.067,1.036.32,1.483,1.41,1.461,2.6-.05,5.2-.069,7.8.007,1.265.037,1.463-.57,1.44-1.623-.047-2.188-.013-4.379-.013-6.568,0-3.71,0-3.616,3.659-3.7,1.626-.038,1.948.556,1.9,2.01-.1,2.733.019,5.473-.047,8.208-.03,1.215.326,1.727,1.618,1.677,2.187-.086,4.378-.022,6.568-.023,2.591,0,2.591,0,2.592-2.689,0-4.121,0-4.084,4.029-3.918,1.037.042,1.484.313,1.422,1.406-.073,1.3.03,2.6-.028,3.9-.043.991.369,1.323,1.321,1.312,2.669-.034,5.339-.056,8.006.009,1.164.029,1.344-.521,1.323-1.5-.047-2.188-.014-4.379-.014-6.568,0-4.029,0-3.983,4.107-3.81,1.105.046,1.39.436,1.373,1.455-.048,2.668.085,5.342-.049,8-.091,1.805.344,2.649,2.338,2.435a46.332,46.332,0,0,1,4.922-.036c3.305,0,3.305,0,3.305-3.395,0-3.2,0-3.1,3.081-3.227,1.805-.075,2.68.357,2.388,2.327-.139.937.026,1.915-.035,2.869-.067,1.064.355,1.459,1.421,1.439,2.6-.048,5.2-.071,7.8.008,1.265.039,1.463-.553,1.438-1.612-.052-2.187-.015-4.378-.015-6.567,0-3.768,0-3.689,3.837-3.712,1.445-.008,1.711.54,1.684,1.791-.063,2.8.022,5.61-.037,8.414-.025,1.21.336,1.768,1.631,1.682s2.6.036,3.9-.032c1.623-.084,3.654.709,4.756-.358,1.028-1,.321-3,.321-4.554,0-1.205.329-1.814,1.624-1.667a6.642,6.642,0,0,0,1.639,0c1.726-.241,2.586.3,2.309,2.2-.136.938.033,1.916-.036,2.869-.085,1.15.341,1.575,1.517,1.542,2.53-.07,5.065-.063,7.594,0,1.15.028,1.586-.374,1.552-1.538-.063-2.187-.017-4.377-.017-6.567,0-3.887,0-3.841,3.972-3.77,1.142.02,1.547.314,1.516,1.5-.078,2.871.037,5.748-.053,8.618-.04,1.31.3,1.836,1.694,1.767,2.116-.105,4.241-.026,6.363-.027,2.6,0,2.6,0,2.6-2.68,0-4.125,0-4.09,4.019-3.926,1.026.041,1.417.3,1.448,1.394.049,1.674-.812,3.89.4,4.888,1.234,1.018,3.419.295,5.185.311,4.279.039,8.559.013,13.319.013-.773-.843-1.2-1.341-1.656-1.8q-29.607-29.609-59.22-59.212c-.242-.242-.5-.47-.724-.728-.679-.778-1.056-.578-1.393.325a44.718,44.718,0,0,1-1.878,4.543c-.811,1.6-.637,2.667.743,4.024,9.708,9.546,19.3,19.21,28.927,28.837,2.534,2.534,2.47,2.475.085,5.012-1.1,1.173-1.732,1.158-2.874,0q-14.079-14.221-28.284-28.319c-.514-.512-.9-1.218-1.842-1.408-.872,2.138-1.669,4.31-2.643,6.4a2.254,2.254,0,0,0,.591,3.01c5.233,5.118,10.385,10.32,15.546,15.512.486.489,1.208.854,1.322,1.813-9.078,0-18.037.032-27-.033a2.231,2.231,0,0,0-2.548,1.677c-.926,2.564-1.016,2.533-3.466,1.54-.569-.232-1.132-.479-1.7-.706-.395-.158-.878-.358-.662-.844.988-2.229-.765-1.614-1.719-1.615q-24.632-.038-49.266.019c-1.652.006-2.188-.338-2.184-2.1q.088-42.383.056-84.764c0-.552-.306-1.226.555-1.827l55.642,55.633c.874-2.146,1.62-4.279,2.605-6.3.713-1.463.448-2.346-.706-3.5q-30.328-30.2-60.559-60.487c-.338-.338-.654-.705-1.023-1.008-.757-.619-.781-1.181,0-1.815a6.786,6.786,0,0,0,1.3-1.307c1.187-1.7,2.077-1.342,3.432.021q29.251,29.387,58.6,58.676A14.1,14.1,0,0,1,2271.606,419.494Zm-55.761-28.556c-.033.362-.069.567-.069.77q-.005,33.662-.046,67.321c0,1.772.812,1.774,2.107,1.772q22.478-.04,44.957-.017c3.485,0,3.474,0,4.78-3.182.51-1.236,1.446-2.478-.742-3.129-.635-.189-.532-1.039-.619-1.64-.578-3.991-1.175-7.981-1.725-11.975a5.815,5.815,0,0,0-1.748-3.543q-22.626-22.511-45.177-45.1C2217.1,391.753,2216.763,391.105,2215.845,390.938Zm144.284,48.937c-.2-.542-.441-1.249-.721-1.939q-15.929-39.311-31.827-78.634c-.745-1.85-1.337-2.114-2.82-.771a7.491,7.491,0,0,1-2.833,1.606c-1.7.494-1.774,1.212-1.14,2.759,6.3,15.356,12.506,30.749,18.742,46.13q8.236,20.32,16.491,40.63c.223.547.14,1.54,1.179,1.336.643-.126,1.318-.294,1.444-1.193C2359.1,446.551,2359.612,443.31,2360.13,439.875Zm-90.246.353c.419,2.771.87,5.536,1.239,8.312.148,1.119.15,2.314,1.612,2.431,1.288.1,1.147-1.172,1.437-1.887q17.431-42.894,34.849-85.793c.773-1.895.65-2.751-1.362-3.344a7.478,7.478,0,0,1-2.8-1.661c-1.226-1.122-1.693-.923-2.308.6q-16.024,39.707-32.138,79.376A3.849,3.849,0,0,0,2269.884,440.228Zm56.731-95.6a11.658,11.658,0,0,0-11.474-11.777,11.651,11.651,0,1,0-.219,23.3A11.587,11.587,0,0,0,2326.615,344.629Zm-8.3-22.1h.052c0-1.092.01-2.184,0-3.274-.03-2.467-1.345-3.993-3.412-3.976s-3.344,1.531-3.383,4.036c-.031,1.977.084,3.961-.034,5.931-.107,1.757.212,2.767,2.283,2.18,1.47-.417,3.542.9,4.344-.3C2318.887,326.05,2318.314,324.1,2318.314,322.532Zm-32.794,138.251.34-.556c-1.958-1.872-3.978-3.681-5.848-5.637-1.154-1.206-1.858-1.438-2.306.436a1.872,1.872,0,0,1-.154.376c-.688,1.387-.565,3.609-3.409,2.276-1.172-.548-1.222,1.479-1.573,2.361-.419,1.061.672.72,1.145.724C2277.65,460.8,2281.585,460.783,2285.521,460.783Z" transform="translate(-2182.883 -309.772)"/>
    <path id="Path_164" data-name="Path 164" class="cls-1" d="M2298.776,335.411a5.394,5.394,0,0,1,5.422,5.461,5.511,5.511,0,0,1-5.446,5.287,5.4,5.4,0,0,1-5.381-5.516A5.292,5.292,0,0,1,2298.776,335.411Z" transform="translate(-2166.661 -306.007)"/>
  </g>
</svg>
