<svg xmlns="http://www.w3.org/2000/svg" width="178" height="152.773" viewBox="0 0 178 152.773">
  <defs>
    <style>
      .cls-1 {
        fill: #393939;
      }
    </style>
  </defs>
  <path id="Path_70" data-name="Path 70" class="cls-1" d="M487.343,126.547a3.5,3.5,0,0,1,3.5-3.5h17.346a3.5,3.5,0,0,1,0,7.009H490.848a3.505,3.505,0,0,1-3.5-3.5Zm46.974-11.214H524.136a3.5,3.5,0,1,1,0-7.007h24.526a18.22,18.22,0,1,1,0,36.441H504.514a3.5,3.5,0,1,1,0-7.009h29.8a18.165,18.165,0,0,1,0-22.426Zm3.133,11.214a11.213,11.213,0,1,0,11.212-11.214,11.242,11.242,0,0,0-11.212,11.214Zm-77.085,11.212a11.258,11.258,0,0,1-9.712-5.6,3.5,3.5,0,0,0-6.063,3.513,18.29,18.29,0,0,0,15.775,9.1c4.75,0,4.75-7.009,0-7.009Zm-9.723-16.8a11.262,11.262,0,0,1,9.7-5.623,3.5,3.5,0,0,0-.007-7.007h-.007a18.293,18.293,0,0,0-15.757,9.129c-2.332,4.047,3.74,7.547,6.072,3.5Zm20.935,5.591a11.182,11.182,0,0,1-1.48,5.569c-2.321,4.045,3.758,7.534,6.079,3.491a18.248,18.248,0,0,0-.058-18.218,3.5,3.5,0,0,0-6.054,3.524,11.21,11.21,0,0,1,1.513,5.634Zm32.93,106.519a3.5,3.5,0,1,0,3.5,3.5,3.506,3.506,0,0,0-3.5-3.5Zm89.007-131.749v92.5A14.031,14.031,0,0,1,579.5,207.838H527.164l1.715,13.726a1.644,1.644,0,0,0,1.043,1.4,14.3,14.3,0,0,1,7.28,5.046,14.146,14.146,0,0,1,2.875,8.562,3.514,3.514,0,0,1-3.5,3.507h-16.3a3.5,3.5,0,1,1,0-7.009h11.886a7.352,7.352,0,0,0-4.225-3.384,8.6,8.6,0,0,1-6.01-7.247l-1.824-14.6H488.928l-1.825,14.6a8.6,8.6,0,0,1-6.01,7.247,7.352,7.352,0,0,0-4.225,3.384h11.87a3.5,3.5,0,0,1,0,7.009H472.454a3.512,3.512,0,0,1-3.5-3.507A14.2,14.2,0,0,1,479.1,222.961a1.643,1.643,0,0,0,1.044-1.4l1.716-13.728H429.529a14.03,14.03,0,0,1-14.015-14.015v-92.5A14.03,14.03,0,0,1,429.529,87.3H579.5a14.031,14.031,0,0,1,14.015,14.015Zm-72.882,78.489H461.767v7.009h58.865Zm-65.876,7.009V165.792H422.52v21.024ZM586.507,172.8v-7.007H461.767V172.8ZM422.52,101.318v57.465H586.507V101.318a7.016,7.016,0,0,0-7.009-7.007H429.529a7.016,7.016,0,0,0-7.009,7.007Zm163.987,92.5H422.52a7.015,7.015,0,0,0,7.009,7.007H579.5a7.015,7.015,0,0,0,7.009-7.007Zm0-7.007v-7.009H527.64v7.009Zm0,0" transform="translate(-415.514 -87.303)"/>
</svg>
